STARTFONT 2.1
FONT -Monotype-Plantin-Regular-I-Normal--24-240-75-75-P-139-iso8859-5
SIZE 24 75 75
FONTBOUNDINGBOX 32 28 -3 -7

STARTPROPERTIES 24
FOUNDRY "Monotype"
FAMILY_NAME "Plantin"
WEIGHT_NAME "Regular"
SLANT "I"
SETWIDTH_NAME "Normal"
ADD_STYLE_NAME ""
PIXEL_SIZE 24
POINT_SIZE 240
RESOLUTION_X 75
RESOLUTION_Y 75
SPACING "P"
AVERAGE_WIDTH 139
CHARSET_REGISTRY "iso8859"
CHARSET_ENCODING "5"
FACE_NAME "Plantin Inclined ISO Latin Cyrillic"
_DEC_DEVICE_FONTNAMES "PS=plantin-in-latcyrillic"
COPYRIGHT "Copyright (c) 1993 Monotype Typography Ltd."
CAP_HEIGHT 19
X_HEIGHT 12
WEIGHT 10
QUAD_WIDTH 16
DEFAULT_CHAR 160
FONT_DESCENT 7
FONT_ASCENT 21
ENDPROPERTIES

CHARS 191

STARTCHAR space
ENCODING 32
SWIDTH 250 0
DWIDTH 6 0
BBX 0 0 0 0
BITMAP
ENDCHAR

STARTCHAR exclam
ENCODING 33
SWIDTH 312 0
DWIDTH 8 0
BBX 8 18 1 0
BITMAP
04
07
06
0E
0C
0C
0C
18
18
10
10
30
20
00
00
E0
E0
E0
ENDCHAR

STARTCHAR quotedbl
ENCODING 34
SWIDTH 417 0
DWIDTH 10 0
BBX 7 7 6 10
BITMAP
66
E6
C6
C6
8C
8C
88
ENDCHAR

STARTCHAR numbersign
ENCODING 35
SWIDTH 500 0
DWIDTH 13 0
BBX 12 17 0 0
BITMAP
0420
0420
0420
0860
0840
0840
FFF0
1840
1080
1080
1080
FFF0
2080
2100
2100
2100
6100
ENDCHAR

STARTCHAR dollar
ENCODING 36
SWIDTH 490 0
DWIDTH 12 0
BBX 12 20 1 -2
BITMAP
0140
03C0
0D60
0AB0
1AB0
1A90
1C80
0F00
0700
0780
0980
0AC0
0AC0
CAC0
D4C0
D580
6500
3C00
2800
2800
ENDCHAR

STARTCHAR percent
ENCODING 37
SWIDTH 729 0
DWIDTH 18 0
BBX 18 18 0 -1
BITMAP
1C00C0
240180
660300
C60600
C60400
C60800
CC1000
482000
304000
008700
010C80
0218C0
0430C0
0830C0
1830C0
303180
601300
C00E00
ENDCHAR

STARTCHAR ampersand
ENCODING 38
SWIDTH 948 0
DWIDTH 24 0
BBX 22 17 2 0
BITMAP
03F000
0E3800
0C1800
180000
18001C
0F0E0C
183F84
6061EC
4040F8
C06080
C07080
C03080
E00180
E00300
780600
3FFC00
07E000
ENDCHAR

STARTCHAR quoteright
ENCODING 39
SWIDTH 313 0
DWIDTH 8 0
BBX 5 7 4 10
BITMAP
70
78
18
18
10
60
80
ENDCHAR

STARTCHAR parenleft
ENCODING 40
SWIDTH 448 0
DWIDTH 11 0
BBX 11 22 3 -5
BITMAP
0060
01C0
0300
0600
0C00
1800
3000
2000
6000
6000
4000
C000
C000
C000
C000
C000
4000
4000
6000
2000
1800
1000
ENDCHAR

STARTCHAR parenright
ENCODING 41
SWIDTH 437 0
DWIDTH 11 0
BBX 11 22 -3 -5
BITMAP
0100
0180
00C0
00C0
0040
0060
0060
0060
0060
0060
0060
0040
00C0
00C0
0180
0300
0300
0600
1C00
3000
E000
8000
ENDCHAR

STARTCHAR asterisk
ENCODING 42
SWIDTH 521 0
DWIDTH 13 0
BBX 11 11 4 8
BITMAP
0200
0600
0600
EE00
7F80
1FE0
1F00
3E00
E600
4200
0300
ENDCHAR

STARTCHAR plus
ENCODING 43
SWIDTH 667 0
DWIDTH 17 0
BBX 14 14 1 1
BITMAP
0300
0300
0300
0300
0300
0300
FFFC
FFFC
0300
0300
0300
0300
0300
0300
ENDCHAR

STARTCHAR comma
ENCODING 44
SWIDTH 313 0
DWIDTH 8 0
BBX 6 8 0 -4
BITMAP
10
3C
3C
0C
0C
08
30
C0
ENDCHAR

STARTCHAR minus
ENCODING 45
SWIDTH 667 0
DWIDTH 17 0
BBX 13 2 2 7
BITMAP
FFF8
FFF8
ENDCHAR

STARTCHAR period
ENCODING 46
SWIDTH 312 0
DWIDTH 8 0
BBX 3 3 1 0
BITMAP
E0
E0
E0
ENDCHAR

STARTCHAR slash
ENCODING 47
SWIDTH 281 0
DWIDTH 7 0
BBX 11 17 -1 0
BITMAP
0060
00C0
0080
0100
0100
0200
0200
0400
0400
0800
0800
1000
1000
2000
2000
4000
C000
ENDCHAR

STARTCHAR zero
ENCODING 48
SWIDTH 521 0
DWIDTH 13 0
BBX 11 17 2 0
BITMAP
0780
0CC0
1840
3060
3060
7060
6060
6060
E0E0
C0C0
C0C0
C1C0
C180
C180
4300
6600
3800
ENDCHAR

STARTCHAR one
ENCODING 49
SWIDTH 521 0
DWIDTH 13 0
BBX 9 17 2 0
BITMAP
0080
0380
0F80
0300
0300
0700
0600
0600
0600
0E00
0C00
0C00
0C00
1C00
1800
3800
FE00
ENDCHAR

STARTCHAR two
ENCODING 50
SWIDTH 521 0
DWIDTH 13 0
BBX 12 17 1 0
BITMAP
03C0
0FE0
1870
1030
0030
0030
0060
00E0
00C0
0180
0200
0400
0800
1020
2040
7FC0
FFC0
ENDCHAR

STARTCHAR three
ENCODING 51
SWIDTH 521 0
DWIDTH 13 0
BBX 12 17 1 0
BITMAP
03C0
07F0
0870
0030
0030
0070
00E0
0380
0F00
0180
01C0
00C0
00C0
00C0
0180
E380
7E00
ENDCHAR

STARTCHAR four
ENCODING 52
SWIDTH 521 0
DWIDTH 13 0
BBX 11 17 2 0
BITMAP
0060
00E0
01E0
02C0
04C0
09C0
1180
2180
6180
C300
FFE0
FFE0
0300
0600
0600
0600
0E00
ENDCHAR

STARTCHAR five
ENCODING 53
SWIDTH 521 0
DWIDTH 13 0
BBX 12 18 1 0
BITMAP
0010
07F0
07F0
0C00
0800
0C00
1F00
0F80
01C0
00C0
0060
0060
0060
0060
0040
00C0
E180
7E00
ENDCHAR

STARTCHAR six
ENCODING 54
SWIDTH 521 0
DWIDTH 13 0
BBX 11 17 2 0
BITMAP
0060
01C0
0700
0C00
1800
3800
7000
6F80
71C0
E0C0
C0C0
C0C0
C0C0
C1C0
6180
6300
1E00
ENDCHAR

STARTCHAR seven
ENCODING 55
SWIDTH 521 0
DWIDTH 13 0
BBX 13 17 2 0
BITMAP
1FF8
1FB0
2060
2040
00C0
0080
0100
0300
0200
0600
0C00
0800
1800
3000
2000
6000
C000
ENDCHAR

STARTCHAR eight
ENCODING 56
SWIDTH 521 0
DWIDTH 13 0
BBX 12 17 1 0
BITMAP
03C0
0C60
1830
1830
1830
1C60
0EC0
0780
0F80
3980
60C0
C0E0
C060
C060
4040
60C0
1F00
ENDCHAR

STARTCHAR nine
ENCODING 57
SWIDTH 521 0
DWIDTH 13 0
BBX 11 17 2 0
BITMAP
0F00
18C0
3040
7060
6060
6060
6060
70E0
71E0
3EC0
01C0
0380
0300
0600
1C00
7000
C000
ENDCHAR

STARTCHAR colon
ENCODING 58
SWIDTH 312 0
DWIDTH 8 0
BBX 5 11 1 0
BITMAP
38
38
38
00
00
00
00
00
E0
E0
E0
ENDCHAR

STARTCHAR semicolon
ENCODING 59
SWIDTH 312 0
DWIDTH 8 0
BBX 8 15 -1 -4
BITMAP
07
07
07
00
00
00
00
10
38
3C
1C
0C
08
30
C0
ENDCHAR

STARTCHAR less
ENCODING 60
SWIDTH 667 0
DWIDTH 17 0
BBX 13 13 2 2
BITMAP
0008
0038
00F8
07C0
1F00
7C00
C000
F000
7C00
0F80
03E0
0078
0018
ENDCHAR

STARTCHAR equal
ENCODING 61
SWIDTH 667 0
DWIDTH 17 0
BBX 13 8 2 4
BITMAP
FFF8
FFF8
0000
0000
0000
0000
FFF8
FFF8
ENDCHAR

STARTCHAR greater
ENCODING 62
SWIDTH 667 0
DWIDTH 17 0
BBX 13 13 2 2
BITMAP
8000
C000
F800
3E00
0780
01F0
0078
0078
03E0
0F80
7C00
F000
C000
ENDCHAR

STARTCHAR question
ENCODING 63
SWIDTH 406 0
DWIDTH 10 0
BBX 8 17 2 0
BITMAP
1C
1E
03
01
01
01
03
07
3E
3C
20
20
00
00
E0
E0
E0
ENDCHAR

STARTCHAR at
ENCODING 64
SWIDTH 917 0
DWIDTH 23 0
BBX 22 23 1 -5
BITMAP
007F00
038080
060040
080020
100010
200010
603988
404708
40C308
C18308
830608
830608
860610
860C10
861C20
C76CC4
438704
600008
200010
100020
0C0040
030380
00FC00
ENDCHAR

STARTCHAR A
ENCODING 65
SWIDTH 729 0
DWIDTH 18 0
BBX 18 17 -1 0
BITMAP
000180
000380
000580
000B80
001380
003380
006300
00C300
008300
01FF00
020300
040300
080300
180700
300700
780F00
FC1FC0
ENDCHAR

STARTCHAR B
ENCODING 66
SWIDTH 698 0
DWIDTH 17 0
BBX 17 17 0 0
BITMAP
0FFE00
070700
070380
070380
070380
060380
060700
0E0E00
0FF000
0C0C00
1C0600
1C0700
180700
180700
380E00
7C1C00
FFF000
ENDCHAR

STARTCHAR C
ENCODING 67
SWIDTH 708 0
DWIDTH 18 0
BBX 17 17 1 0
BITMAP
00FC00
030780
0E0180
1C0180
380180
300000
700000
600000
E00000
E00000
E00000
E00200
600600
700600
300C00
1C3800
07E000
ENDCHAR

STARTCHAR D
ENCODING 68
SWIDTH 781 0
DWIDTH 20 0
BBX 19 17 0 0
BITMAP
0FFC00
078700
030380
0301C0
0700C0
0600E0
0600E0
0E00E0
0E00E0
0C00E0
0C00C0
1C01C0
1C0180
180380
380700
7C0C00
FFF000
ENDCHAR

STARTCHAR E
ENCODING 69
SWIDTH 656 0
DWIDTH 16 0
BBX 18 17 0 0
BITMAP
0FFFC0
078180
038080
030080
030000
070000
070200
060E00
07FC00
0E0C00
0C0C00
0C0000
1C0000
1C0300
180600
3C0E00
FFFC00
ENDCHAR

STARTCHAR F
ENCODING 70
SWIDTH 635 0
DWIDTH 16 0
BBX 18 17 0 0
BITMAP
0FFFC0
038180
038080
030080
030000
070000
070600
060E00
07FC00
0E0C00
0C0C00
0C0800
1C0000
1C0000
1C0000
3C0000
FF0000
ENDCHAR

STARTCHAR G
ENCODING 71
SWIDTH 792 0
DWIDTH 20 0
BBX 18 17 2 0
BITMAP
00FE00
0303C0
0E01C0
1C0080
380080
700000
700000
E00000
E01FC0
E00F80
E00700
E00600
600E00
700E00
300C00
1C1C00
07F000
ENDCHAR

STARTCHAR H
ENCODING 72
SWIDTH 823 0
DWIDTH 21 0
BBX 23 17 0 0
BITMAP
0FE1FE
03C078
038070
038070
030060
070060
0700E0
0600E0
07FFC0
0E00C0
0E01C0
0C0180
1C0180
1C0380
1C0380
3C0780
FE1FE0
ENDCHAR

STARTCHAR I
ENCODING 73
SWIDTH 375 0
DWIDTH 9 0
BBX 11 17 0 0
BITMAP
0FE0
07C0
0380
0300
0300
0700
0700
0600
0600
0E00
0C00
0C00
1C00
1C00
1C00
3C00
FF00
ENDCHAR

STARTCHAR J
ENCODING 74
SWIDTH 479 0
DWIDTH 12 0
BBX 16 22 -2 -5
BITMAP
01C3
03E7
047F
063C
070C
0618
0018
0038
01FE
0030
0070
0070
0070
0060
00E0
00E0
00C0
00C0
0180
4180
E300
7C00
ENDCHAR

STARTCHAR K
ENCODING 75
SWIDTH 771 0
DWIDTH 19 0
BBX 22 17 0 0
BITMAP
0FF3FC
03C0F0
0380C0
030180
030600
070C00
073000
07C000
06E000
0EF000
0C7000
0C3800
1C1C00
1C0E00
1C0700
3C03C0
FF01E0
ENDCHAR

STARTCHAR L
ENCODING 76
SWIDTH 646 0
DWIDTH 16 0
BBX 16 17 0 0
BITMAP
0FE0
03C0
0380
0300
0300
0700
0600
0600
0E00
0E00
0C00
0C00
1C00
1C01
1806
3C0E
FFFE
ENDCHAR

STARTCHAR M
ENCODING 77
SWIDTH 979 0
DWIDTH 24 0
BBX 26 17 -1 0
BITMAP
03E007C0
01E00700
00E00F00
00A00A00
01601600
01702600
02702E00
02704E00
06308E00
04318C00
04310C00
08320C00
083E0C00
183C0C00
18181C00
38181C00
FC107F00
ENDCHAR

STARTCHAR N
ENCODING 78
SWIDTH 812 0
DWIDTH 20 0
BBX 22 17 0 0
BITMAP
1F00FC
078038
038030
02C020
02C020
04E020
046040
047040
043840
083840
081C80
080C80
180E80
100700
100700
380380
FE01C0
ENDCHAR

STARTCHAR O
ENCODING 79
SWIDTH 792 0
DWIDTH 20 0
BBX 18 17 2 0
BITMAP
00F800
030600
0C0300
180180
380180
3001C0
7001C0
6001C0
E001C0
E00380
E00380
E00300
600700
600600
300C00
183000
07C000
ENDCHAR

STARTCHAR P
ENCODING 80
SWIDTH 615 0
DWIDTH 15 0
BBX 17 17 0 0
BITMAP
0FFC00
070700
030380
070380
070380
060380
060700
0E0E00
0EFC00
0C0000
1C0000
1C0000
180000
180000
380000
7C0000
FE0000
ENDCHAR

STARTCHAR Q
ENCODING 81
SWIDTH 792 0
DWIDTH 20 0
BBX 18 22 2 -5
BITMAP
00F800
030600
0E0300
1C0180
380180
3001C0
7001C0
6001C0
E001C0
E001C0
E00380
E00380
E00700
600600
700C00
381800
0FE000
030000
040000
1BE0C0
3FFF80
40FC00
ENDCHAR

STARTCHAR R
ENCODING 82
SWIDTH 698 0
DWIDTH 17 0
BBX 17 17 0 0
BITMAP
0FFC00
078700
030380
030380
070380
060380
060700
0E0E00
0FF800
0C6000
0C7000
1C3000
183800
181800
381C00
7C0E00
FE0F80
ENDCHAR

STARTCHAR S
ENCODING 83
SWIDTH 604 0
DWIDTH 15 0
BBX 15 17 1 0
BITMAP
01F8
060E
0C06
0C02
0E02
0E00
0780
03C0
01E0
00F0
0078
4038
4018
4018
E038
7070
0FC0
ENDCHAR

STARTCHAR T
ENCODING 84
SWIDTH 667 0
DWIDTH 17 0
BBX 16 17 3 0
BITMAP
7FFF
61C3
C183
8182
0380
0300
0300
0700
0700
0600
0600
0E00
0C00
0C00
1C00
3C00
FF00
ENDCHAR

STARTCHAR U
ENCODING 85
SWIDTH 771 0
DWIDTH 19 0
BBX 18 17 3 0
BITMAP
FF0FC0
3C0780
380300
300200
300200
700200
700200
600400
600400
E00400
E00400
C00800
C00800
C01800
E01000
786000
1FC000
ENDCHAR

STARTCHAR V
ENCODING 86
SWIDTH 719 0
DWIDTH 18 0
BBX 17 17 4 0
BITMAP
FE1F80
780F00
300600
300C00
300800
301000
302000
304000
30C000
318000
310000
320000
340000
780000
700000
600000
600000
ENDCHAR

STARTCHAR W
ENCODING 87
SWIDTH 979 0
DWIDTH 24 0
BBX 24 17 4 0
BITMAP
FBF7DF
F0E38E
60C30C
60C608
60C410
60E830
60F060
606040
706080
70E100
716300
726600
746400
3C6800
387000
307000
206000
ENDCHAR

STARTCHAR X
ENCODING 88
SWIDTH 781 0
DWIDTH 20 0
BBX 22 17 0 0
BITMAP
0FF1FC
03C0F0
01C060
01C0C0
00E100
00E200
007C00
007800
003800
005800
019C00
030C00
060E00
0C0600
380700
7C0F80
FE1FC0
ENDCHAR

STARTCHAR Y
ENCODING 89
SWIDTH 719 0
DWIDTH 18 0
BBX 18 17 3 0
BITMAP
FE1FC0
780700
380600
380400
180800
1C1000
0C3000
0E6000
0EC000
068000
070000
070000
060000
060000
0E0000
1E0000
7F8000
ENDCHAR

STARTCHAR Z
ENCODING 90
SWIDTH 625 0
DWIDTH 16 0
BBX 17 17 0 0
BITMAP
07FF80
0E0780
0C0F00
081E00
001C00
003800
007000
00E000
01C000
038000
070000
0E0000
1C0000
380600
780C00
601C00
FFF800
ENDCHAR

STARTCHAR bracketleft
ENCODING 91
SWIDTH 375 0
DWIDTH 9 0
BBX 12 22 1 -5
BITMAP
03F0
0300
0700
0600
0600
0600
0C00
0C00
0C00
1800
1800
1800
3800
3000
3000
3000
6000
6000
6000
E000
E000
F800
ENDCHAR

STARTCHAR backslash
ENCODING 92
SWIDTH 281 0
DWIDTH 7 0
BBX 3 17 3 0
BITMAP
80
80
80
80
80
80
40
40
40
40
40
40
40
40
20
20
20
ENDCHAR

STARTCHAR bracketright
ENCODING 93
SWIDTH 375 0
DWIDTH 9 0
BBX 12 22 -3 -5
BITMAP
01F0
0070
0070
0060
0060
0060
00C0
00C0
00C0
01C0
0180
0180
0380
0300
0300
0300
0600
0600
0600
0E00
1C00
FC00
ENDCHAR

STARTCHAR asciicircum
ENCODING 94
SWIDTH 427 0
DWIDTH 11 0
BBX 11 9 0 8
BITMAP
0400
0C00
0A00
1300
3100
2080
4080
4040
8060
ENDCHAR

STARTCHAR underscore
ENCODING 95
SWIDTH 500 0
DWIDTH 13 0
BBX 13 1 0 -7
BITMAP
FFF8
ENDCHAR

STARTCHAR quoteleft
ENCODING 96
SWIDTH 312 0
DWIDTH 8 0
BBX 5 7 4 10
BITMAP
38
60
40
C0
E0
70
60
ENDCHAR

STARTCHAR a
ENCODING 97
SWIDTH 521 0
DWIDTH 13 0
BBX 12 11 1 0
BITMAP
03B0
0CE0
1060
3060
60C0
40C0
C1C0
C390
C7A0
7DE0
7080
ENDCHAR

STARTCHAR b
ENCODING 98
SWIDTH 469 0
DWIDTH 12 0
BBX 10 17 1 0
BITMAP
3C00
0C00
1800
1800
1800
3000
3300
3780
68C0
70C0
60C0
60C0
C180
C180
C300
E600
7800
ENDCHAR

STARTCHAR c
ENCODING 99
SWIDTH 385 0
DWIDTH 10 0
BBX 9 11 1 0
BITMAP
0700
1980
3180
2000
6000
C000
C000
C180
E300
7E00
3800
ENDCHAR

STARTCHAR d
ENCODING 100
SWIDTH 500 0
DWIDTH 13 0
BBX 13 17 1 0
BITMAP
0078
0018
0018
0030
0030
0030
07A0
08E0
1060
2060
60C0
C0C0
C1C0
C180
C3B0
FDE0
70C0
ENDCHAR

STARTCHAR e
ENCODING 101
SWIDTH 385 0
DWIDTH 10 0
BBX 9 11 1 0
BITMAP
0700
1980
3180
2100
4600
7800
C000
C100
C300
7E00
3800
ENDCHAR

STARTCHAR f
ENCODING 102
SWIDTH 281 0
DWIDTH 7 0
BBX 14 22 -3 -5
BITMAP
003C
006C
0040
00C0
00C0
0180
0180
0FE0
0180
0300
0300
0300
0300
0600
0600
0600
0600
0C00
0C00
0800
D800
F000
ENDCHAR

STARTCHAR g
ENCODING 103
SWIDTH 448 0
DWIDTH 11 0
BBX 13 16 -1 -5
BITMAP
03F0
0C78
0860
1860
1860
18C0
0F00
1000
3000
3E00
1F80
63C0
C0C0
C0C0
4180
3E00
ENDCHAR

STARTCHAR h
ENCODING 104
SWIDTH 521 0
DWIDTH 13 0
BBX 12 17 1 0
BITMAP
3E00
0C00
0C00
0C00
1800
1800
19E0
3260
3460
38C0
28C0
70C0
6180
6190
C1A0
C3C0
C180
ENDCHAR

STARTCHAR i
ENCODING 105
SWIDTH 271 0
DWIDTH 7 0
BBX 7 17 0 0
BITMAP
06
06
02
00
00
00
38
58
D8
18
18
30
30
30
64
68
70
ENDCHAR

STARTCHAR j
ENCODING 106
SWIDTH 240 0
DWIDTH 6 0
BBX 10 22 -3 -5
BITMAP
00C0
00C0
0040
0000
0000
0000
0380
0580
0980
0180
0300
0300
0300
0200
0600
0600
0600
0C00
0C00
0800
C800
F000
ENDCHAR

STARTCHAR k
ENCODING 107
SWIDTH 521 0
DWIDTH 13 0
BBX 12 17 0 0
BITMAP
1F00
0600
0600
0600
0C00
0C00
0DE0
1A30
1C30
1820
30C0
3F00
3300
6310
6190
61E0
C0C0
ENDCHAR

STARTCHAR l
ENCODING 108
SWIDTH 240 0
DWIDTH 6 0
BBX 7 17 1 0
BITMAP
3E
0C
0C
0C
18
18
18
30
30
30
60
60
60
C8
D8
F0
C0
ENDCHAR

STARTCHAR m
ENCODING 109
SWIDTH 771 0
DWIDTH 19 0
BBX 18 11 1 0
BITMAP
38E3C0
5964C0
9A68C0
145180
34D180
28E380
30C300
71C300
618640
618680
C30700
ENDCHAR

STARTCHAR n
ENCODING 110
SWIDTH 531 0
DWIDTH 13 0
BBX 12 11 1 0
BITMAP
38E0
7930
9A60
1C60
3460
38C0
30C0
60C0
6190
61A0
C1C0
ENDCHAR

STARTCHAR o
ENCODING 111
SWIDTH 448 0
DWIDTH 11 0
BBX 10 11 1 0
BITMAP
0780
19C0
30C0
60C0
60C0
C0C0
C180
C180
C300
6600
7800
ENDCHAR

STARTCHAR p
ENCODING 112
SWIDTH 490 0
DWIDTH 12 0
BBX 14 18 -2 -5
BITMAP
0180
0180
03F8
073C
0B0C
120C
060C
060C
0608
0C18
0C30
0C60
0F80
1800
1800
1800
3800
FE00
ENDCHAR

STARTCHAR q
ENCODING 113
SWIDTH 448 0
DWIDTH 11 0
BBX 10 16 1 -5
BITMAP
07C0
18C0
30C0
20C0
6180
4180
C380
C300
C700
FB00
7200
0600
0600
0600
0E00
3F80
ENDCHAR

STARTCHAR r
ENCODING 114
SWIDTH 344 0
DWIDTH 9 0
BBX 9 11 1 0
BITMAP
7380
B780
B580
2800
3000
7000
6000
6000
6000
C000
C000
ENDCHAR

STARTCHAR s
ENCODING 115
SWIDTH 333 0
DWIDTH 8 0
BBX 8 11 1 0
BITMAP
1E
27
22
30
38
18
0C
0C
84
CC
70
ENDCHAR

STARTCHAR t
ENCODING 116
SWIDTH 292 0
DWIDTH 7 0
BBX 7 13 1 0
BITMAP
08
38
FE
30
30
30
60
60
60
40
C4
D8
E0
ENDCHAR

STARTCHAR u
ENCODING 117
SWIDTH 531 0
DWIDTH 13 0
BBX 12 11 1 0
BITMAP
3830
7830
D870
1860
30E0
30E0
31C0
62D0
62D0
6CE0
70C0
ENDCHAR

STARTCHAR v
ENCODING 118
SWIDTH 521 0
DWIDTH 13 0
BBX 12 11 1 0
BITMAP
3E30
7E30
8430
C410
C810
1810
1020
3060
3040
3980
1E00
ENDCHAR

STARTCHAR w
ENCODING 119
SWIDTH 688 0
DWIDTH 17 0
BBX 16 11 1 0
BITMAP
3E33
7C73
8463
C861
D841
1001
30C2
60C2
6144
7678
3C30
ENDCHAR

STARTCHAR x
ENCODING 120
SWIDTH 490 0
DWIDTH 12 0
BBX 12 11 0 0
BITMAP
1C30
2C70
2490
0700
0700
0200
0700
0B00
D1B0
F1E0
4080
ENDCHAR

STARTCHAR y
ENCODING 121
SWIDTH 479 0
DWIDTH 12 0
BBX 14 16 -2 -5
BITMAP
0608
0E0C
160C
130C
0308
0308
0310
0110
01A0
01A0
01C0
0180
0100
0200
CC00
F000
ENDCHAR

STARTCHAR z
ENCODING 122
SWIDTH 490 0
DWIDTH 12 0
BBX 12 11 0 0
BITMAP
1F10
23E0
3060
2080
0300
0C00
1000
20C0
70C0
FE40
8F80
ENDCHAR

STARTCHAR braceleft
ENCODING 123
SWIDTH 479 0
DWIDTH 12 0
BBX 11 22 5 -5
BITMAP
00E0
0100
0200
0600
0600
0400
0C00
0C00
0800
1000
E000
6000
1000
1000
3000
3000
7000
6000
6000
4000
6000
3800
ENDCHAR

STARTCHAR bar
ENCODING 124
SWIDTH 198 0
DWIDTH 5 0
BBX 1 22 2 -5
BITMAP
80
80
80
80
80
80
80
80
80
80
80
80
80
80
80
80
80
80
80
80
80
80
ENDCHAR

STARTCHAR braceright
ENCODING 125
SWIDTH 479 0
DWIDTH 12 0
BBX 11 22 2 -5
BITMAP
0380
0040
0040
00C0
00C0
00C0
0180
0180
0100
0180
00E0
00C0
0100
0200
0600
0600
0600
0C00
0C00
0800
1800
E000
ENDCHAR

STARTCHAR asciitilde
ENCODING 126
SWIDTH 542 0
DWIDTH 14 0
BBX 12 4 1 6
BITMAP
3810
FE10
87E0
81C0
ENDCHAR

STARTCHAR space
ENCODING 160
SWIDTH 250 0
DWIDTH 7 0
BBX 0 0 0 0
BITMAP
ENDCHAR

STARTCHAR afii10023
ENCODING 161
SWIDTH 656 0
DWIDTH 16 0
BBX 18 21 0 0
BITMAP
00E380
00E380
004100
000000
0FFFC0
0381C0
038080
038080
030000
030000
070200
060600
07FE00
0E0C00
0E0400
0C0000
0C0000
1C0100
1C0300
3C0E00
FFFE00
ENDCHAR

STARTCHAR afii10051
ENCODING 162
SWIDTH 771 0
DWIDTH 19 0
BBX 16 17 3 0
BITMAP
7FFF
E186
C382
8382
0300
0300
077C
0786
0607
0E03
0E03
0C03
0C03
1C67
1CE6
3CCC
FE78
ENDCHAR

STARTCHAR afii10052
ENCODING 163
SWIDTH 563 0
DWIDTH 14 0
BBX 16 21 1 0
BITMAP
003C
0070
0060
0000
1FFF
0786
0702
0602
0600
0E00
0E00
0C00
0C00
1C00
1800
1800
3800
3800
3800
F800
FE00
ENDCHAR

STARTCHAR afii10053
ENCODING 164
SWIDTH 708 0
DWIDTH 18 0
BBX 17 17 2 0
BITMAP
00FC00
070700
0E0380
180100
380100
300000
700000
600000
FFE000
E00000
E00000
E00000
600C00
701C00
301C00
183800
0FC000
ENDCHAR

STARTCHAR afii10054
ENCODING 165
SWIDTH 604 0
DWIDTH 15 0
BBX 15 17 1 0
BITMAP
01F8
060E
0E06
0C02
0E02
0E00
0780
03C0
01E0
00F0
0078
4038
4018
4018
E038
7070
0FC0
ENDCHAR

STARTCHAR afii10055
ENCODING 166
SWIDTH 375 0
DWIDTH 9 0
BBX 11 17 0 0
BITMAP
0FE0
07C0
0380
0300
0300
0700
0700
0600
0600
0E00
0C00
0C00
1C00
1C00
1C00
3C00
FF00
ENDCHAR

STARTCHAR afii10056
ENCODING 167
SWIDTH 375 0
DWIDTH 9 0
BBX 13 21 0 0
BITMAP
0E38
0E38
0E38
0000
0FE0
07C0
0380
0300
0300
0700
0600
0600
0E00
0E00
0C00
0C00
1C00
1800
1800
3C00
FE00
ENDCHAR

STARTCHAR afii10057
ENCODING 168
SWIDTH 479 0
DWIDTH 12 0
BBX 16 22 -2 -5
BITMAP
01C3
03E7
047F
063C
070C
0618
0018
0038
01FE
0030
0070
0070
0070
0060
00E0
00E0
00C0
00C0
0180
4180
E300
7C00
ENDCHAR

STARTCHAR afii10058
ENCODING 169
SWIDTH 927 0
DWIDTH 23 0
BBX 24 17 -1 0
BITMAP
01FFF0
0063C0
004180
004380
008300
008300
008700
0107F0
01061C
010606
020E07
020E07
020C07
041C07
441C0E
F83C3C
70FFF0
ENDCHAR

STARTCHAR afii10059
ENCODING 170
SWIDTH 970 0
DWIDTH 24 0
BBX 24 17 0 0
BITMAP
0FEFF0
07C3C0
038380
030380
070300
070300
060700
060600
0FFFF0
0C0E0C
0C0E06
1C0C07
1C0C07
181C07
381C0E
783C1C
FEFFF0
ENDCHAR

STARTCHAR afii10060
ENCODING 171
SWIDTH 802 0
DWIDTH 20 0
BBX 16 17 2 0
BITMAP
7FFE
638E
4306
C304
0700
0700
067C
0786
0F03
0C03
0C03
1C07
1C07
1806
380E
7C1E
FE3F
ENDCHAR

STARTCHAR afii10061
ENCODING 172
SWIDTH 708 0
DWIDTH 18 0
BBX 19 21 0 0
BITMAP
000F00
001C00
001000
000000
0FE0E0
07C1E0
038200
030200
030200
070400
070400
060800
07F000
0E7000
0C3000
0C3800
1C1800
181C00
380E00
7C0700
FE0780
ENDCHAR

STARTCHAR hyphen
ENCODING 173
SWIDTH 365 0
DWIDTH 9 0
BBX 8 2 1 5
BITMAP
FF
FF
ENDCHAR

STARTCHAR afii10062
ENCODING 174
SWIDTH 688 0
DWIDTH 17 0
BBX 17 21 3 0
BITMAP
060C00
071C00
01F000
000000
FE1F80
7C0F00
380600
180400
180800
1C0800
0C1000
0C2000
0E4000
064000
068000
070000
020000
060000
C40000
F80000
F00000
ENDCHAR

STARTCHAR afii10145
ENCODING 175
SWIDTH 813 0
DWIDTH 20 0
BBX 22 21 0 -4
BITMAP
0FE1FC
07C0F8
038070
030060
030060
0700E0
0600E0
0600C0
0600C0
0E01C0
0C0180
0C0180
1C0380
180380
180300
7C0780
FFFFC0
00C000
00C000
01C000
018000
ENDCHAR

STARTCHAR afii10017
ENCODING 176
SWIDTH 729 0
DWIDTH 18 0
BBX 18 17 -1 0
BITMAP
000180
000380
000580
000B80
001380
003380
006300
00C300
008300
01FF00
020300
040300
080300
180700
300700
780F00
FC1FC0
ENDCHAR

STARTCHAR afii10018
ENCODING 177
SWIDTH 688 0
DWIDTH 17 0
BBX 18 17 0 0
BITMAP
0FFFC0
03C180
038080
030080
030000
070000
070000
060000
07F800
0E0C00
0C0600
0C0700
1C0700
1C0700
180E00
3C1C00
FFF000
ENDCHAR

STARTCHAR afii10019
ENCODING 178
SWIDTH 698 0
DWIDTH 17 0
BBX 17 17 0 0
BITMAP
0FFE00
070700
070380
070380
070380
060380
060700
0E0E00
0FF000
0C0C00
1C0600
1C0700
180700
180700
380E00
7C1C00
FFF000
ENDCHAR

STARTCHAR afii10020
ENCODING 179
SWIDTH 563 0
DWIDTH 14 0
BBX 16 17 1 0
BITMAP
1FFF
0786
0702
0602
0600
0E00
0E00
0C00
0C00
1C00
1800
1800
3800
3800
3800
F800
FE00
ENDCHAR

STARTCHAR afii10021
ENCODING 180
SWIDTH 677 0
DWIDTH 17 0
BBX 20 21 -2 -4
BITMAP
01FFF0
00E1E0
0040C0
0040C0
0081C0
008180
008180
008380
010380
010300
010300
020700
020600
040600
040E00
1C1F00
7FFF80
700380
600180
C00100
800100
ENDCHAR

STARTCHAR afii10022
ENCODING 181
SWIDTH 656 0
DWIDTH 16 0
BBX 18 17 0 0
BITMAP
0FFFC0
078180
038080
030080
030000
070000
070200
060E00
07FC00
0E0C00
0C0C00
0C0000
1C0000
1C0300
180600
3C0E00
FFFC00
ENDCHAR

STARTCHAR afii10024
ENCODING 182
SWIDTH 969 0
DWIDTH 24 0
BBX 26 17 0 0
BITMAP
070FE1C0
0F87C3C0
00838400
00830400
00830800
00870800
00860800
00461000
00FFE000
01CEE000
018C6000
038C7000
071C3000
0E183800
1C183800
3C7C1C00
F8FE0E00
ENDCHAR

STARTCHAR afii10025
ENCODING 183
SWIDTH 569 0
DWIDTH 14 0
BBX 14 17 0 0
BITMAP
03E0
0E38
0C18
081C
101C
001C
0038
0070
0780
0060
0030
0038
0038
E038
E070
70E0
1F80
ENDCHAR

STARTCHAR afii10026
ENCODING 184
SWIDTH 813 0
DWIDTH 20 0
BBX 22 17 0 0
BITMAP
0FE1FC
07C0F8
038070
0300E0
030160
0702E0
0704E0
0608C0
0610C0
0E21C0
0C4180
0D8180
1F0380
1E0380
380300
7C0F80
FE1FC0
ENDCHAR

STARTCHAR afii10027
ENCODING 185
SWIDTH 813 0
DWIDTH 20 0
BBX 22 21 0 0
BITMAP
003060
0038E0
000F80
000000
0FE1FC
07C0F8
038070
0300E0
030160
0702E0
0704E0
0608C0
0610C0
0E21C0
0C4180
0D8180
1F0380
1E0380
380300
7C0F80
FE1FC0
ENDCHAR

STARTCHAR afii10028
ENCODING 186
SWIDTH 708 0
DWIDTH 18 0
BBX 19 17 0 0
BITMAP
0FE0E0
07C1E0
038200
030200
030200
070400
070400
060800
07F000
0E7000
0C3000
0C3800
1C1800
181C00
380E00
7C0700
FE0780
ENDCHAR

STARTCHAR afii10029
ENCODING 187
SWIDTH 718 0
DWIDTH 18 0
BBX 21 17 -1 0
BITMAP
01FFF8
0061E0
0040C0
0040C0
0041C0
008180
008180
008380
010380
010300
010300
020700
020600
020600
440E00
F81F00
703F80
ENDCHAR

STARTCHAR afii10030
ENCODING 188
SWIDTH 979 0
DWIDTH 24 0
BBX 26 17 -1 0
BITMAP
03E007C0
01E00700
00E00F00
00A00A00
01601600
01702600
02702E00
02704E00
06308E00
04318C00
04310C00
08320C00
083E0C00
183C0C00
18181C00
38181C00
FC107F00
ENDCHAR

STARTCHAR afii10031
ENCODING 189
SWIDTH 823 0
DWIDTH 21 0
BBX 23 17 0 0
BITMAP
0FE1FE
03C078
038070
038070
030060
070060
0700E0
0600E0
07FFC0
0E00C0
0E01C0
0C0180
1C0180
1C0380
1C0380
3C0780
FE1FE0
ENDCHAR

STARTCHAR afii10032
ENCODING 190
SWIDTH 792 0
DWIDTH 20 0
BBX 18 17 2 0
BITMAP
00F800
030600
0C0300
180180
380180
3001C0
7001C0
6001C0
E001C0
E00380
E00380
E00300
600700
600600
300C00
183000
07C000
ENDCHAR

STARTCHAR afii10033
ENCODING 191
SWIDTH 813 0
DWIDTH 20 0
BBX 22 17 0 0
BITMAP
0FFFFC
03C078
038070
030060
030060
0700E0
0600C0
0600C0
0E01C0
0E01C0
0C0180
0C0180
1C0380
1C0300
380300
7C0F80
FE1FC0
ENDCHAR

STARTCHAR afii10034
ENCODING 192
SWIDTH 615 0
DWIDTH 15 0
BBX 17 17 0 0
BITMAP
0FFC00
070700
030380
070380
070380
060380
060700
0E0E00
0EFC00
0C0000
1C0000
1C0000
180000
180000
380000
7C0000
FE0000
ENDCHAR

STARTCHAR afii10035
ENCODING 193
SWIDTH 708 0
DWIDTH 18 0
BBX 17 17 2 0
BITMAP
00FC00
030780
0E0180
1C0180
380180
300000
700000
600000
E00000
E00000
E00000
E00200
600600
700600
300C00
1C3800
07E000
ENDCHAR

STARTCHAR afii10036
ENCODING 194
SWIDTH 667 0
DWIDTH 17 0
BBX 16 17 3 0
BITMAP
7FFF
61C3
C183
8182
0380
0300
0300
0700
0700
0600
0600
0E00
0C00
0C00
1C00
3C00
FF00
ENDCHAR

STARTCHAR afii10037
ENCODING 195
SWIDTH 688 0
DWIDTH 17 0
BBX 17 17 3 0
BITMAP
FE1F80
7C0F00
380600
180400
180800
1C0800
0C1000
0C2000
0E4000
064000
068000
070000
020000
060000
C40000
F80000
F00000
ENDCHAR

STARTCHAR afii10038
ENCODING 196
SWIDTH 917 0
DWIDTH 23 0
BBX 21 17 2 0
BITMAP
007F00
003E00
001800
07FF80
1C38E0
383830
703038
E03038
E07038
E06030
606070
7060E0
38C1C0
0FFF00
01C000
03E000
07F000
ENDCHAR

STARTCHAR afii10039
ENCODING 197
SWIDTH 781 0
DWIDTH 20 0
BBX 22 17 0 0
BITMAP
0FF1FC
03C0F0
01C060
01C0C0
00E100
00E200
007C00
007800
003800
005800
019C00
030C00
060E00
0C0600
380700
7C0F80
FE1FC0
ENDCHAR

STARTCHAR afii10040
ENCODING 198
SWIDTH 813 0
DWIDTH 20 0
BBX 22 21 0 -4
BITMAP
0FE1FC
07C0F8
038070
030060
030060
0700E0
0700E0
0600C0
0600C0
0E01C0
0C0180
0C0180
1C0380
1C0380
180300
3C0780
FFFFE0
0000C0
0000C0
0000C0
000080
ENDCHAR

STARTCHAR afii10041
ENCODING 199
SWIDTH 771 0
DWIDTH 19 0
BBX 18 17 3 0
BITMAP
FE1FC0
7C0F00
380700
300600
700E00
600C00
600C00
601C00
703C00
385800
0F9800
003800
003000
003000
007000
00F800
01FC00
ENDCHAR

STARTCHAR afii10042
ENCODING 200
SWIDTH 1000 0
DWIDTH 25 0
BBX 27 17 0 0
BITMAP
0FEFEFE0
07C7C7C0
03838380
03030300
03030700
07070700
07060600
06060600
0E0E0E00
0E0E0C00
0C0C0C00
0C0C1C00
1C1C1C00
18181800
18183800
3C3C7C00
FFFFFE00
ENDCHAR

STARTCHAR afii10043
ENCODING 201
SWIDTH 1000 0
DWIDTH 25 0
BBX 27 21 0 -4
BITMAP
0FEFEFE0
07C7C7C0
03838380
03030300
03030700
07070700
07060600
06060600
0E0E0E00
0E0E0C00
0C0C0C00
0C0C1C00
1C1C1C00
18181800
18183800
3C3C7C00
FFFFFE00
00000E00
00000400
00000400
00000400
ENDCHAR

STARTCHAR afii10044
ENCODING 202
SWIDTH 741 0
DWIDTH 19 0
BBX 16 17 3 0
BITMAP
7FF0
71C0
E380
C300
0300
0700
0700
0600
07F8
0E0C
0C06
0C07
1C07
1C07
180E
3C1C
FFF0
ENDCHAR

STARTCHAR afii10045
ENCODING 203
SWIDTH 979 0
DWIDTH 24 0
BBX 26 17 0 0
BITMAP
0FF01FC0
07C00780
03800700
03000700
03000600
07000600
07000E00
06000C00
0FF80C00
0E0C1C00
0C061C00
0C071800
1C071800
18073800
380E3800
3C1C7800
FFF1FE00
ENDCHAR

STARTCHAR afii10046
ENCODING 204
SWIDTH 642 0
DWIDTH 16 0
BBX 16 17 0 0
BITMAP
0FF0
07C0
0380
0300
0300
0700
0700
0600
0FF8
0E0C
0C06
0C07
1C07
1807
380E
3C1C
FFF0
ENDCHAR

STARTCHAR afii10047
ENCODING 205
SWIDTH 708 0
DWIDTH 18 0
BBX 17 17 1 0
BITMAP
01F000
0F0C00
0C0600
0C0300
080300
000380
000380
000380
03FF80
000380
000700
000700
600E00
E01E00
603C00
307000
0FC000
ENDCHAR

STARTCHAR afii10048
ENCODING 206
SWIDTH 1135 0
DWIDTH 28 0
BBX 29 17 0 0
BITMAP
0FF01F00
03C060C0
0381C060
03838030
03070030
03060038
070E0038
060C0038
07FC0038
0E1C0038
0E1C0070
0C1C0070
0C0C00E0
1C0C00C0
1C060180
3C030600
FE01F800
ENDCHAR

STARTCHAR afii10049
ENCODING 207
SWIDTH 698 0
DWIDTH 17 0
BBX 20 17 0 0
BITMAP
00FFF0
0381C0
070180
0E0380
0E0380
0E0300
060300
038700
00FE00
018600
038E00
070E00
0E0C00
1C0C00
1C1C00
783E00
F07F00
ENDCHAR

STARTCHAR afii10065
ENCODING 208
SWIDTH 521 0
DWIDTH 13 0
BBX 12 11 0 0
BITMAP
03B0
0CE0
1060
3060
60C0
40C0
C1C0
C390
C7A0
7DE0
7080
ENDCHAR

STARTCHAR afii10066
ENCODING 209
SWIDTH 448 0
DWIDTH 11 0
BBX 11 17 1 0
BITMAP
0020
07C0
0C00
1000
2000
2000
2780
5980
70C0
60C0
E0C0
C0C0
C180
C180
C300
6600
3800
ENDCHAR

STARTCHAR afii10067
ENCODING 210
SWIDTH 385 0
DWIDTH 10 0
BBX 9 11 1 0
BITMAP
0700
1980
3180
6300
6600
FE00
C300
C300
C300
4600
3C00
ENDCHAR

STARTCHAR afii10068
ENCODING 211
SWIDTH 302 0
DWIDTH 8 0
BBX 7 11 1 0
BITMAP
1C
26
06
04
08
10
60
C0
C0
CC
70
ENDCHAR

STARTCHAR afii10069
ENCODING 212
SWIDTH 449 0
DWIDTH 11 0
BBX 10 17 1 0
BITMAP
0400
0200
0100
0180
0080
00C0
0EC0
11C0
20C0
60C0
40C0
C080
C180
C180
C300
6600
3800
ENDCHAR

STARTCHAR afii10070
ENCODING 213
SWIDTH 385 0
DWIDTH 10 0
BBX 9 11 1 0
BITMAP
0700
1980
3180
2100
4600
7800
C000
C100
C300
7E00
3800
ENDCHAR

STARTCHAR afii10072
ENCODING 214
SWIDTH 875 0
DWIDTH 22 0
BBX 22 11 0 0
BITMAP
1F0C38
338C6C
4198CC
819880
019980
01FF00
033300
033300
C6330C
CC6390
7061E0
ENDCHAR

STARTCHAR afii10073
ENCODING 215
SWIDTH 365 0
DWIDTH 9 0
BBX 9 11 0 0
BITMAP
0F00
3180
0180
0180
1E00
0600
0300
0300
C300
6600
3C00
ENDCHAR

STARTCHAR afii10074
ENCODING 216
SWIDTH 531 0
DWIDTH 13 0
BBX 12 11 1 0
BITMAP
3830
7830
D870
1860
30E0
30E0
31C0
62D0
62D0
6CE0
70C0
ENDCHAR

STARTCHAR afii10075
ENCODING 217
SWIDTH 531 0
DWIDTH 13 0
BBX 12 16 1 0
BITMAP
0610
0720
03C0
0000
0000
3830
6830
D870
1860
30E0
30E0
31C0
62C0
62D0
6CE0
70C0
ENDCHAR

STARTCHAR afii10076
ENCODING 218
SWIDTH 489 0
DWIDTH 12 0
BBX 12 11 1 0
BITMAP
7860
1870
1880
1080
3100
3E00
2600
6300
6300
4180
C1C0
ENDCHAR

STARTCHAR afii10077
ENCODING 219
SWIDTH 490 0
DWIDTH 12 0
BBX 12 11 0 0
BITMAP
01F0
0260
0460
0460
08C0
08C0
08C0
1080
1190
E1E0
C1C0
ENDCHAR

STARTCHAR afii10078
ENCODING 220
SWIDTH 586 0
DWIDTH 15 0
BBX 15 11 0 0
BITMAP
0606
060C
061C
061C
0A28
0B58
1358
1390
2332
E334
C238
ENDCHAR

STARTCHAR afii10079
ENCODING 221
SWIDTH 525 0
DWIDTH 13 0
BBX 12 11 1 0
BITMAP
7830
1830
1860
3060
3060
3FC0
20C0
60C0
6190
61E0
C180
ENDCHAR

STARTCHAR afii10080
ENCODING 222
SWIDTH 448 0
DWIDTH 11 0
BBX 10 11 1 0
BITMAP
0780
19C0
30C0
60C0
60C0
C0C0
C180
C180
C300
6600
7800
ENDCHAR

STARTCHAR afii10081
ENCODING 223
SWIDTH 531 0
DWIDTH 13 0
BBX 12 11 1 0
BITMAP
38E0
7930
9A60
1C60
3460
38C0
30C0
60C0
6190
61A0
C1C0
ENDCHAR

STARTCHAR afii10082
ENCODING 224
SWIDTH 490 0
DWIDTH 12 0
BBX 14 18 -2 -5
BITMAP
0180
0180
03F8
0738
0B0C
320C
060C
060C
0608
0C18
0C30
0C60
0F80
1800
1800
1800
3800
FE00
ENDCHAR

STARTCHAR afii10083
ENCODING 225
SWIDTH 385 0
DWIDTH 10 0
BBX 9 11 1 0
BITMAP
0700
1980
3180
2000
6000
C000
C000
C180
E300
7E00
3800
ENDCHAR

STARTCHAR afii10084
ENCODING 226
SWIDTH 771 0
DWIDTH 19 0
BBX 18 11 1 0
BITMAP
38E3C0
5964C0
9A68C0
145180
34D180
28E380
30C300
71C300
618640
618680
C30700
ENDCHAR

STARTCHAR afii10085
ENCODING 227
SWIDTH 479 0
DWIDTH 12 0
BBX 14 16 -2 -5
BITMAP
0608
0E0C
160C
130C
0308
0308
0310
0110
01A0
01A0
01C0
0180
0100
0200
CC00
F000
ENDCHAR

STARTCHAR afii10086
ENCODING 228
SWIDTH 625 0
DWIDTH 16 0
BBX 14 22 1 -5
BITMAP
001C
002C
0060
00C0
00C0
00C0
0EB8
11CC
318C
610C
630C
C30C
C218
C618
C630
C660
7DC0
0C00
0C00
4800
D000
E000
ENDCHAR

STARTCHAR afii10087
ENCODING 229
SWIDTH 490 0
DWIDTH 12 0
BBX 12 11 0 0
BITMAP
1C30
2C70
2490
0700
0700
0200
0700
0B00
D1B0
F1E0
4080
ENDCHAR

STARTCHAR afii10088
ENCODING 230
SWIDTH 521 0
DWIDTH 13 0
BBX 13 15 0 -4
BITMAP
1818
2C30
D830
1870
1860
30E0
30E0
3140
62C8
6CF0
70E0
0040
00C0
0080
0100
ENDCHAR

STARTCHAR afii10089
ENCODING 231
SWIDTH 490 0
DWIDTH 12 0
BBX 11 11 1 0
BITMAP
7060
B0C0
30C0
20C0
6180
6780
3980
0320
0340
03C0
0100
ENDCHAR

STARTCHAR afii10090
ENCODING 232
SWIDTH 792 0
DWIDTH 20 0
BBX 18 11 2 0
BITMAP
7060C0
B0C180
B0C180
21C380
618300
638700
638B00
458E00
CB3640
D36680
E38700
ENDCHAR

STARTCHAR afii10091
ENCODING 233
SWIDTH 792 0
DWIDTH 20 0
BBX 18 15 2 -4
BITMAP
7060C0
B0C180
B0C180
21C380
618300
638700
638B00
458E00
CB3640
D36680
E38700
000200
000600
000600
000C00
ENDCHAR

STARTCHAR afii10092
ENCODING 234
SWIDTH 396 0
DWIDTH 10 0
BBX 9 11 0 0
BITMAP
3200
7C00
8400
0800
1F00
3180
7180
6180
6300
2300
1C00
ENDCHAR

STARTCHAR afii10093
ENCODING 235
SWIDTH 624 0
DWIDTH 16 0
BBX 14 11 2 0
BITMAP
783C
3018
3018
6018
7E30
6330
E330
C320
C764
4668
3870
ENDCHAR

STARTCHAR afii10094
ENCODING 236
SWIDTH 406 0
DWIDTH 10 0
BBX 8 11 2 0
BITMAP
78
30
30
60
7E
63
E3
C3
C6
46
38
ENDCHAR

STARTCHAR afii10095
ENCODING 237
SWIDTH 396 0
DWIDTH 10 0
BBX 9 11 0 0
BITMAP
0F00
3380
2180
0180
0180
1F80
0300
0300
C600
C400
7800
ENDCHAR

STARTCHAR afii10096
ENCODING 238
SWIDTH 667 0
DWIDTH 17 0
BBX 15 11 1 0
BITMAP
F83C
18CE
3186
3306
2306
7E06
660C
660C
C618
C330
C3C0
ENDCHAR

STARTCHAR afii10097
ENCODING 239
SWIDTH 542 0
DWIDTH 14 0
BBX 13 11 0 0
BITMAP
07F8
0C30
1830
1820
0C60
07E0
0860
10C0
20C8
E0D0
C0E0
ENDCHAR

STARTCHAR afii61352
ENCODING 240
SWIDTH 1031 0
DWIDTH 26 0
BBX 25 17 1 0
BITMAP
07C03000
03C07800
01E08000
01608000
01610F00
02611980
02713180
02713180
02326180
04326300
043A6300
041C6600
081C3C00
081C0000
08180000
F008FC00
6009FC00
ENDCHAR

STARTCHAR afii10071
ENCODING 241
SWIDTH 385 0
DWIDTH 10 0
BBX 10 16 1 0
BITMAP
0CC0
0CC0
0000
0000
0000
0700
1980
3180
2100
4600
7800
C000
C100
C300
7E00
3800
ENDCHAR

STARTCHAR afii10099
ENCODING 242
SWIDTH 510 0
DWIDTH 13 0
BBX 11 21 1 -4
BITMAP
3E00
0C00
0C00
0C00
7FE0
1800
1800
13C0
3CE0
3060
2060
6060
6060
60C0
C0C0
C180
C180
0300
0600
0C00
1800
ENDCHAR

STARTCHAR afii10100
ENCODING 243
SWIDTH 448 0
DWIDTH 11 0
BBX 12 16 0 0
BITMAP
00E0
0180
0100
0000
0000
3FF0
0C00
1820
1800
1800
1000
3000
3000
3000
7000
F800
ENDCHAR

STARTCHAR afii10101
ENCODING 244
SWIDTH 406 0
DWIDTH 10 0
BBX 10 11 1 0
BITMAP
0780
1840
3000
6000
4000
FE00
C000
C000
C300
6600
3C00
ENDCHAR

STARTCHAR afii10102
ENCODING 245
SWIDTH 333 0
DWIDTH 8 0
BBX 8 11 1 0
BITMAP
1E
27
22
30
38
18
0C
0C
84
CC
70
ENDCHAR

STARTCHAR afii10103
ENCODING 246
SWIDTH 271 0
DWIDTH 7 0
BBX 7 17 0 0
BITMAP
06
06
02
00
00
00
38
58
D8
18
18
30
30
30
64
68
70
ENDCHAR

STARTCHAR afii10104
ENCODING 247
SWIDTH 271 0
DWIDTH 7 0
BBX 8 16 1 0
BITMAP
33
33
00
00
00
38
58
D8
18
10
30
30
20
64
68
70
ENDCHAR

STARTCHAR afii10105
ENCODING 248
SWIDTH 240 0
DWIDTH 6 0
BBX 10 22 -3 -5
BITMAP
00C0
00C0
0040
0000
0000
0000
0380
0580
0980
0180
0300
0300
0300
0200
0600
0600
0600
0C00
0C00
0800
D800
F000
ENDCHAR

STARTCHAR afii10106
ENCODING 249
SWIDTH 663 0
DWIDTH 17 0
BBX 16 11 0 0
BITMAP
00F0
0330
0220
0460
047E
0863
08C3
08C3
10C3
E046
C038
ENDCHAR

STARTCHAR afii10107
ENCODING 250
SWIDTH 691 0
DWIDTH 17 0
BBX 15 11 1 0
BITMAP
78E0
3860
1060
3040
30FC
3FC6
6086
6186
4186
C08C
C070
ENDCHAR

STARTCHAR afii10108
ENCODING 251
SWIDTH 500 0
DWIDTH 13 0
BBX 12 17 0 0
BITMAP
1E00
0600
0600
0400
3FF0
0C00
0800
1BC0
1C60
1860
3060
30C0
30C0
60C0
6190
61E0
C1C0
ENDCHAR

STARTCHAR afii10109
ENCODING 252
SWIDTH 489 0
DWIDTH 12 0
BBX 12 16 1 0
BITMAP
01C0
0180
0300
0000
0000
7860
1870
1880
1080
3100
3E00
2600
6300
6300
4180
C1C0
ENDCHAR

STARTCHAR section
ENCODING 253
SWIDTH 458 0
DWIDTH 11 0
BBX 16 22 -2 -5
BITMAP
003E
00CF
0186
0180
0380
0280
06C0
0440
0440
0460
0420
0620
0620
0220
0220
0320
0160
0140
0140
E180
F300
7C00
ENDCHAR

STARTCHAR afii10110
ENCODING 254
SWIDTH 479 0
DWIDTH 12 0
BBX 14 20 -2 -5
BITMAP
0318
03B0
01C0
0000
0408
0E0C
160C
130C
0308
0308
0310
0110
01A0
01A0
01C0
0180
0100
0200
CC00
F000
ENDCHAR

STARTCHAR afii10193
ENCODING 255
SWIDTH 531 0
DWIDTH 13 0
BBX 12 15 1 -4
BITMAP
3830
5860
9860
10E0
30C0
31C0
31C0
6380
65B0
69E0
1180
2000
2000
6000
4000
ENDCHAR
ENDFONT
